<svg width="605" height="280" viewBox="0 0 605 280" fill="none" xmlns="http://www.w3.org/2000/svg">
<path d="M248.368 182V94.192H262.704V137.968L304.56 94.192H322.224L288.432 129.52L323.12 182H306.224L278.704 139.632L262.704 154.352V182H248.368ZM333.201 182V89.456H346.513V182H333.201ZM370.997 205.296C368.437 205.296 366.304 205.083 364.597 204.656C362.89 204.315 361.824 204.101 361.397 204.016V194.416H367.797C369.674 194.416 371.552 193.989 373.429 193.136C375.392 192.283 377.141 190.917 378.677 189.04C380.213 187.163 381.493 184.816 382.517 182L356.277 114.672H370.229L383.285 148.208C383.882 149.744 384.522 151.664 385.205 153.968C385.973 156.272 386.698 158.619 387.381 161.008C388.149 163.397 388.789 165.531 389.301 167.408H389.941C390.368 166.128 390.794 164.677 391.221 163.056C391.733 161.349 392.245 159.6 392.757 157.808C393.269 156.016 393.781 154.309 394.293 152.688C394.805 150.981 395.232 149.531 395.573 148.336L406.453 114.672H420.021L397.237 179.44C395.957 183.024 394.549 186.395 393.013 189.552C391.477 192.709 389.685 195.44 387.637 197.744C385.674 200.133 383.328 201.968 380.597 203.248C377.866 204.613 374.666 205.296 370.997 205.296ZM429.701 182V114.672H440.709L441.861 125.552H442.629C443.397 123.419 444.378 121.413 445.573 119.536C446.853 117.659 448.474 116.123 450.437 114.928C452.485 113.733 454.96 113.136 457.861 113.136C459.226 113.136 460.421 113.264 461.445 113.52C462.554 113.776 463.408 113.989 464.005 114.16V126.704H459.525C456.794 126.704 454.362 127.131 452.229 127.984C450.181 128.837 448.432 130.117 446.981 131.824C445.616 133.445 444.592 135.451 443.909 137.84C443.312 140.229 443.013 142.917 443.013 145.904V182H429.701ZM500.605 183.536C493.693 183.536 487.89 182.299 483.197 179.824C478.589 177.264 475.09 173.381 472.701 168.176C470.312 162.971 469.117 156.357 469.117 148.336C469.117 140.229 470.312 133.616 472.701 128.496C475.09 123.291 478.632 119.451 483.325 116.976C488.018 114.416 493.864 113.136 500.861 113.136C507.261 113.136 512.594 114.373 516.861 116.848C521.213 119.237 524.498 122.907 526.717 127.856C528.936 132.805 530.045 139.035 530.045 146.544V151.664H482.813C482.984 156.443 483.709 160.453 484.989 163.696C486.269 166.853 488.189 169.2 490.749 170.736C493.394 172.187 496.722 172.912 500.733 172.912C503.208 172.912 505.426 172.613 507.389 172.016C509.352 171.333 511.016 170.395 512.381 169.2C513.746 167.92 514.813 166.427 515.581 164.72C516.349 162.928 516.733 160.923 516.733 158.704H529.789C529.789 162.715 529.106 166.256 527.741 169.328C526.376 172.4 524.37 175.003 521.725 177.136C519.165 179.184 516.093 180.763 512.509 181.872C508.925 182.981 504.957 183.536 500.605 183.536ZM483.069 141.936H516.093C516.093 138.608 515.709 135.835 514.941 133.616C514.258 131.312 513.234 129.435 511.869 127.984C510.504 126.533 508.882 125.509 507.005 124.912C505.128 124.229 502.994 123.888 500.605 123.888C497.021 123.888 493.949 124.528 491.389 125.808C488.914 127.088 486.994 129.093 485.629 131.824C484.264 134.469 483.41 137.84 483.069 141.936Z" fill="url(#paint0_linear_200_142)"/>
<path d="M248.368 182H247.868V182.5H248.368V182ZM248.368 94.192V93.692H247.868V94.192H248.368ZM262.704 94.192H263.204V93.692H262.704V94.192ZM262.704 137.968H262.204V139.214L263.065 138.314L262.704 137.968ZM304.56 94.192V93.692H304.346L304.199 93.8465L304.56 94.192ZM322.224 94.192L322.585 94.5376L323.394 93.692H322.224V94.192ZM288.432 129.52L288.071 129.174L287.795 129.463L288.015 129.796L288.432 129.52ZM323.12 182V182.5H324.05L323.537 181.724L323.12 182ZM306.224 182L305.805 182.272L305.953 182.5H306.224V182ZM278.704 139.632L279.123 139.36L278.801 138.863L278.365 139.264L278.704 139.632ZM262.704 154.352L262.365 153.984L262.204 154.133V154.352H262.704ZM262.704 182V182.5H263.204V182H262.704ZM248.368 182H248.868V94.192H248.368H247.868V182H248.368ZM248.368 94.192V94.692H262.704V94.192V93.692H248.368V94.192ZM262.704 94.192H262.204V137.968H262.704H263.204V94.192H262.704ZM262.704 137.968L263.065 138.314L304.921 94.5375L304.56 94.192L304.199 93.8465L262.343 137.622L262.704 137.968ZM304.56 94.192V94.692H322.224V94.192V93.692H304.56V94.192ZM322.224 94.192L321.863 93.8464L288.071 129.174L288.432 129.52L288.793 129.866L322.585 94.5376L322.224 94.192ZM288.432 129.52L288.015 129.796L322.703 182.276L323.12 182L323.537 181.724L288.849 129.244L288.432 129.52ZM323.12 182V181.5H306.224V182V182.5H323.12V182ZM306.224 182L306.643 181.728L279.123 139.36L278.704 139.632L278.285 139.904L305.805 182.272L306.224 182ZM278.704 139.632L278.365 139.264L262.365 153.984L262.704 154.352L263.043 154.72L279.043 140L278.704 139.632ZM262.704 154.352H262.204V182H262.704H263.204V154.352H262.704ZM262.704 182V181.5H248.368V182V182.5H262.704V182ZM333.201 182H332.701V182.5H333.201V182ZM333.201 89.456V88.956H332.701V89.456H333.201ZM346.513 89.456H347.013V88.956H346.513V89.456ZM346.513 182V182.5H347.013V182H346.513ZM333.201 182H333.701V89.456H333.201H332.701V182H333.201ZM333.201 89.456V89.956H346.513V89.456V88.956H333.201V89.456ZM346.513 89.456H346.013V182H346.513H347.013V89.456H346.513ZM346.513 182V181.5H333.201V182V182.5H346.513V182ZM364.597 204.656L364.718 204.171L364.707 204.168L364.695 204.166L364.597 204.656ZM361.397 204.016H360.897V204.426L361.299 204.506L361.397 204.016ZM361.397 194.416V193.916H360.897V194.416H361.397ZM373.429 193.136L373.23 192.677L373.222 192.681L373.429 193.136ZM378.677 189.04L379.064 189.357V189.357L378.677 189.04ZM382.517 182L382.987 182.171L383.051 181.994L382.983 181.818L382.517 182ZM356.277 114.672V114.172H355.546L355.811 114.854L356.277 114.672ZM370.229 114.672L370.695 114.491L370.571 114.172H370.229V114.672ZM383.285 148.208L383.751 148.027L383.751 148.027L383.285 148.208ZM385.205 153.968L384.726 154.11L384.728 154.118L384.731 154.126L385.205 153.968ZM387.381 161.008L386.9 161.145L386.902 161.153L386.905 161.161L387.381 161.008ZM389.301 167.408L388.819 167.54L388.919 167.908H389.301V167.408ZM389.941 167.408V167.908H390.301L390.415 167.566L389.941 167.408ZM391.221 163.056L390.742 162.912L390.74 162.921L390.737 162.929L391.221 163.056ZM392.757 157.808L392.276 157.671V157.671L392.757 157.808ZM394.293 152.688L394.77 152.839L394.772 152.832L394.293 152.688ZM395.573 148.336L395.097 148.182L395.095 148.19L395.092 148.199L395.573 148.336ZM406.453 114.672V114.172H406.089L405.977 114.518L406.453 114.672ZM420.021 114.672L420.493 114.838L420.727 114.172H420.021V114.672ZM397.237 179.44L397.708 179.608L397.709 179.606L397.237 179.44ZM393.013 189.552L392.563 189.333V189.333L393.013 189.552ZM387.637 197.744L387.263 197.412L387.257 197.419L387.251 197.427L387.637 197.744ZM380.597 203.248L380.385 202.795L380.373 202.801L380.597 203.248ZM370.997 205.296V204.796C368.461 204.796 366.372 204.584 364.718 204.171L364.597 204.656L364.476 205.141C366.236 205.581 368.413 205.796 370.997 205.796V205.296ZM364.597 204.656L364.695 204.166C362.988 203.824 361.922 203.611 361.495 203.526L361.397 204.016L361.299 204.506C361.726 204.592 362.792 204.805 364.499 205.146L364.597 204.656ZM361.397 204.016H361.897V194.416H361.397H360.897V204.016H361.397ZM361.397 194.416V194.916H367.797V194.416V193.916H361.397V194.416ZM367.797 194.416V194.916C369.752 194.916 371.7 194.471 373.636 193.591L373.429 193.136L373.222 192.681C371.403 193.508 369.596 193.916 367.797 193.916V194.416ZM373.429 193.136L373.628 193.595C375.673 192.705 377.484 191.287 379.064 189.357L378.677 189.04L378.29 188.723C376.798 190.547 375.11 191.86 373.23 192.677L373.429 193.136ZM378.677 189.04L379.064 189.357C380.643 187.427 381.948 185.028 382.987 182.171L382.517 182L382.047 181.829C381.038 184.604 379.783 186.898 378.29 188.723L378.677 189.04ZM382.517 182L382.983 181.818L356.743 114.49L356.277 114.672L355.811 114.854L382.051 182.182L382.517 182ZM356.277 114.672V115.172H370.229V114.672V114.172H356.277V114.672ZM370.229 114.672L369.763 114.853L382.819 148.389L383.285 148.208L383.751 148.027L370.695 114.491L370.229 114.672ZM383.285 148.208L382.819 148.389C383.41 149.908 384.045 151.814 384.726 154.11L385.205 153.968L385.684 153.826C384.999 151.514 384.355 149.58 383.751 148.027L383.285 148.208ZM385.205 153.968L384.731 154.126C385.496 156.423 386.22 158.763 386.9 161.145L387.381 161.008L387.862 160.871C387.177 158.475 386.45 156.121 385.679 153.81L385.205 153.968ZM387.381 161.008L386.905 161.161C387.671 163.545 388.309 165.671 388.819 167.54L389.301 167.408L389.783 167.276C389.269 165.39 388.627 163.25 387.857 160.855L387.381 161.008ZM389.301 167.408V167.908H389.941V167.408V166.908H389.301V167.408ZM389.941 167.408L390.415 167.566C390.846 166.274 391.276 164.813 391.705 163.183L391.221 163.056L390.737 162.929C390.313 164.542 389.889 165.982 389.467 167.25L389.941 167.408ZM391.221 163.056L391.7 163.2C392.213 161.491 392.725 159.739 393.238 157.945L392.757 157.808L392.276 157.671C391.765 159.461 391.253 161.208 390.742 162.912L391.221 163.056ZM392.757 157.808L393.238 157.945C393.749 156.157 394.259 154.455 394.77 152.839L394.293 152.688L393.816 152.537C393.303 154.164 392.789 155.875 392.276 157.671L392.757 157.808ZM394.293 152.688L394.772 152.832C395.284 151.124 395.712 149.671 396.054 148.473L395.573 148.336L395.092 148.199C394.752 149.391 394.326 150.839 393.814 152.544L394.293 152.688ZM395.573 148.336L396.049 148.49L406.929 114.826L406.453 114.672L405.977 114.518L395.097 148.182L395.573 148.336ZM406.453 114.672V115.172H420.021V114.672V114.172H406.453V114.672ZM420.021 114.672L419.549 114.506L396.765 179.274L397.237 179.44L397.709 179.606L420.493 114.838L420.021 114.672ZM397.237 179.44L396.766 179.272C395.492 182.84 394.091 186.194 392.563 189.333L393.013 189.552L393.463 189.771C395.007 186.596 396.422 183.208 397.708 179.608L397.237 179.44ZM393.013 189.552L392.563 189.333C391.045 192.455 389.277 195.146 387.263 197.412L387.637 197.744L388.011 198.076C390.093 195.734 391.909 192.964 393.463 189.771L393.013 189.552ZM387.637 197.744L387.251 197.427C385.334 199.76 383.046 201.548 380.385 202.795L380.597 203.248L380.809 203.701C383.609 202.388 386.015 200.507 388.023 198.061L387.637 197.744ZM380.597 203.248L380.373 202.801C377.725 204.125 374.604 204.796 370.997 204.796V205.296V205.796C374.728 205.796 378.008 205.102 380.821 203.695L380.597 203.248ZM429.701 182H429.201V182.5H429.701V182ZM429.701 114.672V114.172H429.201V114.672H429.701ZM440.709 114.672L441.206 114.619L441.159 114.172H440.709V114.672ZM441.861 125.552L441.364 125.605L441.411 126.052H441.861V125.552ZM442.629 125.552V126.052H442.98L443.099 125.721L442.629 125.552ZM445.573 119.536L445.16 119.254L445.155 119.261L445.151 119.268L445.573 119.536ZM450.437 114.928L450.185 114.496L450.177 114.501L450.437 114.928ZM461.445 113.52L461.324 114.005L461.333 114.007L461.445 113.52ZM464.005 114.16H464.505V113.783L464.142 113.679L464.005 114.16ZM464.005 126.704V127.204H464.505V126.704H464.005ZM452.229 127.984L452.043 127.52L452.037 127.522L452.229 127.984ZM446.981 131.824L446.6 131.5L446.599 131.502L446.981 131.824ZM443.909 137.84L443.428 137.703L443.426 137.711L443.424 137.719L443.909 137.84ZM443.013 182V182.5H443.513V182H443.013ZM429.701 182H430.201V114.672H429.701H429.201V182H429.701ZM429.701 114.672V115.172H440.709V114.672V114.172H429.701V114.672ZM440.709 114.672L440.212 114.725L441.364 125.605L441.861 125.552L442.358 125.499L441.206 114.619L440.709 114.672ZM441.861 125.552V126.052H442.629V125.552V125.052H441.861V125.552ZM442.629 125.552L443.099 125.721C443.855 123.622 444.82 121.65 445.995 119.804L445.573 119.536L445.151 119.268C443.936 121.177 442.939 123.215 442.159 125.383L442.629 125.552ZM445.573 119.536L445.986 119.818C447.226 118 448.794 116.513 450.697 115.355L450.437 114.928L450.177 114.501C448.154 115.732 446.48 117.317 445.16 119.254L445.573 119.536ZM450.437 114.928L450.689 115.36C452.645 114.219 455.028 113.636 457.861 113.636V113.136V112.636C454.891 112.636 452.325 113.248 450.185 114.496L450.437 114.928ZM457.861 113.136V113.636C459.197 113.636 460.349 113.761 461.324 114.005L461.445 113.52L461.566 113.035C460.493 112.767 459.256 112.636 457.861 112.636V113.136ZM461.445 113.52L461.333 114.007C462.439 114.263 463.283 114.474 463.868 114.641L464.005 114.16L464.142 113.679C463.533 113.505 462.669 113.289 461.557 113.033L461.445 113.52ZM464.005 114.16H463.505V126.704H464.005H464.505V114.16H464.005ZM464.005 126.704V126.204H459.525V126.704V127.204H464.005V126.704ZM459.525 126.704V126.204C456.742 126.204 454.246 126.639 452.043 127.52L452.229 127.984L452.415 128.448C454.479 127.623 456.846 127.204 459.525 127.204V126.704ZM452.229 127.984L452.037 127.522C449.915 128.406 448.101 129.734 446.6 131.5L446.981 131.824L447.362 132.148C448.762 130.501 450.447 129.268 452.421 128.446L452.229 127.984ZM446.981 131.824L446.599 131.502C445.181 133.186 444.127 135.257 443.428 137.703L443.909 137.84L444.39 137.977C445.056 135.644 446.051 133.705 447.363 132.146L446.981 131.824ZM443.909 137.84L443.424 137.719C442.815 140.155 442.513 142.885 442.513 145.904H443.013H443.513C443.513 142.95 443.808 140.304 444.394 137.961L443.909 137.84ZM443.013 145.904H442.513V182H443.013H443.513V145.904H443.013ZM443.013 182V181.5H429.701V182V182.5H443.013V182ZM483.197 179.824L482.954 180.261L482.964 180.266L483.197 179.824ZM472.701 168.176L472.247 168.385V168.385L472.701 168.176ZM472.701 128.496L473.154 128.707L473.155 128.705L472.701 128.496ZM483.325 116.976L483.558 117.418L483.564 117.415L483.325 116.976ZM516.861 116.848L516.61 117.281L516.62 117.286L516.861 116.848ZM526.717 127.856L526.261 128.061V128.061L526.717 127.856ZM530.045 151.664V152.164H530.545V151.664H530.045ZM482.813 151.664V151.164H482.295L482.313 151.682L482.813 151.664ZM484.989 163.696L484.524 163.88L484.526 163.884L484.989 163.696ZM490.749 170.736L490.492 171.165L490.5 171.17L490.509 171.174L490.749 170.736ZM507.389 172.016L507.535 172.494L507.544 172.491L507.553 172.488L507.389 172.016ZM512.381 169.2L512.71 169.576L512.717 169.571L512.723 169.565L512.381 169.2ZM515.581 164.72L516.037 164.925L516.041 164.917L515.581 164.72ZM516.733 158.704V158.204H516.233V158.704H516.733ZM529.789 158.704H530.289V158.204H529.789V158.704ZM527.741 169.328L527.284 169.125V169.125L527.741 169.328ZM521.725 177.136L522.037 177.526L522.039 177.525L521.725 177.136ZM512.509 181.872L512.657 182.35L512.509 181.872ZM483.069 141.936L482.571 141.894L482.526 142.436H483.069V141.936ZM516.093 141.936V142.436H516.593V141.936H516.093ZM514.941 133.616L514.462 133.758L514.465 133.769L514.469 133.78L514.941 133.616ZM507.005 124.912L506.834 125.382L506.844 125.385L506.853 125.388L507.005 124.912ZM491.389 125.808L491.165 125.361L491.159 125.364L491.389 125.808ZM485.629 131.824L486.073 132.053L486.076 132.048L485.629 131.824ZM500.605 183.536V183.036C493.75 183.036 488.033 181.809 483.43 179.382L483.197 179.824L482.964 180.266C487.747 182.789 493.636 184.036 500.605 184.036V183.536ZM483.197 179.824L483.44 179.387C478.933 176.883 475.504 173.085 473.155 167.967L472.701 168.176L472.247 168.385C474.676 173.678 478.245 177.645 482.954 180.261L483.197 179.824ZM472.701 168.176L473.155 167.967C470.806 162.848 469.617 156.312 469.617 148.336H469.117H468.617C468.617 156.402 469.818 163.093 472.247 168.385L472.701 168.176ZM469.117 148.336H469.617C469.617 140.273 470.806 133.739 473.154 128.707L472.701 128.496L472.248 128.285C469.817 133.493 468.617 140.186 468.617 148.336H469.117ZM472.701 128.496L473.155 128.705C475.503 123.591 478.97 119.837 483.558 117.418L483.325 116.976L483.092 116.534C478.293 119.064 474.678 122.99 472.247 128.287L472.701 128.496ZM483.325 116.976L483.564 117.415C488.165 114.905 493.922 113.636 500.861 113.636V113.136V112.636C493.805 112.636 487.872 113.927 483.086 116.537L483.325 116.976ZM500.861 113.136V113.636C507.198 113.636 512.439 114.861 516.61 117.281L516.861 116.848L517.112 116.415C512.75 113.885 507.324 112.636 500.861 112.636V113.136ZM516.861 116.848L516.62 117.286C520.868 119.618 524.082 123.201 526.261 128.061L526.717 127.856L527.173 127.651C524.914 122.613 521.558 118.856 517.102 116.41L516.861 116.848ZM526.717 127.856L526.261 128.061C528.442 132.926 529.545 139.08 529.545 146.544H530.045H530.545C530.545 138.99 529.43 132.685 527.173 127.651L526.717 127.856ZM530.045 146.544H529.545V151.664H530.045H530.545V146.544H530.045ZM530.045 151.664V151.164H482.813V151.664V152.164H530.045V151.664ZM482.813 151.664L482.313 151.682C482.485 156.498 483.217 160.568 484.524 163.88L484.989 163.696L485.454 163.512C484.201 160.338 483.482 156.388 483.313 151.646L482.813 151.664ZM484.989 163.696L484.526 163.884C485.84 167.127 487.826 169.565 490.492 171.165L490.749 170.736L491.006 170.307C488.552 168.835 486.698 166.58 485.452 163.508L484.989 163.696ZM490.749 170.736L490.509 171.174C493.248 172.677 496.665 173.412 500.733 173.412V172.912V172.412C496.78 172.412 493.541 171.697 490.989 170.298L490.749 170.736ZM500.733 172.912V173.412C503.247 173.412 505.516 173.109 507.535 172.494L507.389 172.016L507.243 171.538C505.336 172.118 503.168 172.412 500.733 172.412V172.912ZM507.389 172.016L507.553 172.488C509.568 171.788 511.29 170.819 512.71 169.576L512.381 169.2L512.052 168.824C510.741 169.97 509.135 170.879 507.225 171.544L507.389 172.016ZM512.381 169.2L512.723 169.565C514.136 168.24 515.242 166.692 516.037 164.925L515.581 164.72L515.125 164.515C514.384 166.161 513.356 167.6 512.039 168.835L512.381 169.2ZM515.581 164.72L516.041 164.917C516.839 163.055 517.233 160.981 517.233 158.704H516.733H516.233C516.233 160.864 515.859 162.801 515.121 164.523L515.581 164.72ZM516.733 158.704V159.204H529.789V158.704V158.204H516.733V158.704ZM529.789 158.704H529.289C529.289 162.658 528.616 166.128 527.284 169.125L527.741 169.328L528.198 169.531C529.597 166.384 530.289 162.771 530.289 158.704H529.789ZM527.741 169.328L527.284 169.125C525.951 172.124 523.995 174.663 521.411 176.747L521.725 177.136L522.039 177.525C524.745 175.343 526.8 172.676 528.198 169.531L527.741 169.328ZM521.725 177.136L521.413 176.746C518.908 178.749 515.894 180.301 512.361 181.394L512.509 181.872L512.657 182.35C516.292 181.224 519.422 179.619 522.037 177.526L521.725 177.136ZM512.509 181.872L512.361 181.394C508.832 182.487 504.915 183.036 500.605 183.036V183.536V184.036C504.999 184.036 509.018 183.476 512.657 182.35L512.509 181.872ZM483.069 141.936V142.436H516.093V141.936V141.436H483.069V141.936ZM516.093 141.936H516.593C516.593 138.574 516.206 135.741 515.413 133.452L514.941 133.616L514.469 133.78C515.212 135.929 515.593 138.642 515.593 141.936H516.093ZM514.941 133.616L515.42 133.474C514.72 131.11 513.662 129.16 512.233 127.641L511.869 127.984L511.505 128.327C512.807 129.71 513.797 131.514 514.462 133.758L514.941 133.616ZM511.869 127.984L512.233 127.641C510.81 126.129 509.116 125.059 507.157 124.436L507.005 124.912L506.853 125.388C508.649 125.96 510.197 126.937 511.505 128.327L511.869 127.984ZM507.005 124.912L507.176 124.442C505.234 123.736 503.042 123.388 500.605 123.388V123.888V124.388C502.947 124.388 505.021 124.723 506.834 125.382L507.005 124.912ZM500.605 123.888V123.388C496.962 123.388 493.81 124.038 491.165 125.361L491.389 125.808L491.613 126.255C494.088 125.018 497.079 124.388 500.605 124.388V123.888ZM491.389 125.808L491.159 125.364C488.582 126.697 486.59 128.785 485.182 131.6L485.629 131.824L486.076 132.048C487.399 129.402 489.247 127.479 491.619 126.252L491.389 125.808ZM485.629 131.824L485.185 131.595C483.78 134.316 482.916 137.756 482.571 141.894L483.069 141.936L483.567 141.978C483.905 137.924 484.747 134.623 486.073 132.053L485.629 131.824Z" fill="#1A1A1A" fill-opacity="0.1"/>
<g clip-path="url(#clip0_200_142)">
<path d="M142.238 144.793L142.324 144.877L142.383 144.813C144.487 145.11 146.155 145.65 147.521 146.379C150.698 148.063 152.234 150.761 153.778 153.775C157.437 160.91 161.153 169.825 186.83 171.384L203.8 171.384C205.014 171.384 206 172.369 206 173.586L206 186.798C206 188.014 205.014 189 203.8 189L191.82 189C191.738 189 191.661 188.996 191.582 188.987L188.497 188.987C142.414 186.835 163.536 162.061 138.249 162.061C112.962 162.061 134.084 186.835 88.001 188.987L86.5885 188.987C86.5114 188.996 86.4322 189 86.353 189L74.2783 189C73.0638 189 72.0781 188.014 72.0781 186.798L72.0781 173.586C72.0781 172.369 73.0638 171.384 74.2783 171.384L89.6709 171.384C115.347 169.825 119.063 160.91 122.72 153.775C124.21 150.871 125.688 148.261 128.637 146.566C130.828 145.304 133.829 144.547 138.249 144.547C139.73 144.547 141.052 144.633 142.238 144.793Z" fill="url(#paint1_linear_200_142)"/>
<path d="M142.238 144.793C142.287 144.8 142.335 144.807 142.383 144.813L142.324 144.877L142.238 144.793Z" fill="url(#paint2_linear_200_142)"/>
<path fill-rule="evenodd" clip-rule="evenodd" d="M142.238 144.793C142.287 144.8 142.335 144.807 142.383 144.813L142.324 144.877L142.238 144.793Z" fill="#D8D8D8"/>
<path fill-rule="evenodd" clip-rule="evenodd" d="M73.2002 136.159L113.607 136.159C110.089 139.779 108.093 143.699 106.683 146.471C105.218 149.351 104.85 149.908 104.065 150.448C102.921 151.232 99.1934 153.101 89.1143 153.769L74.2783 153.769C74.1067 153.769 73.9373 153.771 73.7679 153.775L73.2002 153.775C71.9857 153.775 71 152.789 71 151.573L71 138.361C71 137.144 71.9857 136.159 73.2002 136.159Z" fill="url(#paint3_linear_200_142)"/>
<path fill-rule="evenodd" clip-rule="evenodd" d="M169.816 146.469C168.405 143.699 166.41 139.779 162.892 136.159L202.72 136.159C203.934 136.159 204.92 137.144 204.92 138.361L204.92 151.573C204.92 152.731 204.024 153.68 202.889 153.769L187.384 153.769C177.307 153.101 173.58 151.232 172.436 150.448C171.648 149.909 171.281 149.351 169.816 146.469Z" fill="url(#paint4_linear_200_142)"/>
<path fill-rule="evenodd" clip-rule="evenodd" d="M142.238 144.793C142.287 144.8 142.335 144.807 142.383 144.813L142.324 144.877L142.238 144.793Z" fill="#D8D8D8"/>
<path fill-rule="evenodd" clip-rule="evenodd" d="M142.238 144.793C142.287 144.8 142.335 144.807 142.383 144.813L142.324 144.877L142.238 144.793Z" fill="#D8D8D8"/>
<path fill-rule="evenodd" clip-rule="evenodd" d="M145.972 91.202L145.972 123.016L178.898 90.0636C179.758 89.2048 181.151 89.2048 182.009 90.0636L191.344 99.4065C192.205 100.265 192.205 101.661 191.344 102.52L160.183 133.707C160.183 133.707 160.179 133.702 160.176 133.7C156.187 130.529 151.499 128.492 145.972 127.548C144.671 127.325 143.323 127.162 141.928 127.063C140.738 126.975 139.512 126.931 138.249 126.931C136.812 126.931 135.422 126.986 134.078 127.101C132.075 127.268 130.174 127.561 128.37 127.981C123.767 129.054 119.781 130.95 116.322 133.7C116.221 133.779 116.122 133.861 116.023 133.942L101.926 119.834C101.066 118.975 101.066 117.579 101.926 116.721L111.261 107.378C112.12 106.519 113.512 106.519 114.373 107.378L128.37 121.387L128.37 91.202C128.37 89.9865 129.356 89 130.57 89L143.772 89C144.986 89 145.972 89.9865 145.972 91.202Z" fill="url(#paint5_linear_200_142)"/>
</g>
<defs>
<linearGradient id="paint0_linear_200_142" x1="386.5" y1="172" x2="386.5" y2="217.5" gradientUnits="userSpaceOnUse">
<stop stop-color="#1A1A1A"/>
<stop offset="1" stop-color="#767676"/>
</linearGradient>
<linearGradient id="paint1_linear_200_142" x1="170.352" y1="166.773" x2="170.352" y2="197" gradientUnits="userSpaceOnUse">
<stop stop-color="#1A1A1A"/>
<stop offset="1" stop-color="#767676"/>
</linearGradient>
<linearGradient id="paint2_linear_200_142" x1="142.345" y1="144.835" x2="142.345" y2="144.892" gradientUnits="userSpaceOnUse">
<stop stop-color="#1A1A1A"/>
<stop offset="1" stop-color="#767676"/>
</linearGradient>
<linearGradient id="paint3_linear_200_142" x1="102.266" y1="144.967" x2="102.266" y2="161.5" gradientUnits="userSpaceOnUse">
<stop stop-color="#1A1A1A"/>
<stop offset="1" stop-color="#767676"/>
</linearGradient>
<linearGradient id="paint4_linear_200_142" x1="193.732" y1="144.964" x2="193.732" y2="163" gradientUnits="userSpaceOnUse">
<stop stop-color="#1A1A1A"/>
<stop offset="1" stop-color="#767676"/>
</linearGradient>
<linearGradient id="paint5_linear_200_142" x1="167.844" y1="111.471" x2="197.537" y2="111.471" gradientUnits="userSpaceOnUse">
<stop stop-color="#1A1A1A"/>
<stop offset="1" stop-color="#767676"/>
</linearGradient>
<clipPath id="clip0_200_142">
<rect width="100" height="135" fill="white" transform="translate(71 189) rotate(-90)"/>
</clipPath>
</defs>
</svg>
