<svg width="135" height="100" viewBox="0 0 135 100" fill="none" xmlns="http://www.w3.org/2000/svg">
<g clip-path="url(#clip0_217_54)">
<path d="M71.2382 55.7934L71.324 55.877L71.3834 55.8132C73.4868 56.1105 75.1545 56.6499 76.5209 57.3788C79.6979 59.0633 81.2337 61.7607 82.7782 64.7752C86.4372 71.9095 90.1533 80.8253 115.83 82.3843L132.8 82.3843C134.014 82.3843 135 83.3686 135 84.5863L135 97.798C135 99.0135 134.014 100 132.8 100L120.82 100C120.738 100 120.661 99.9956 120.582 99.9868L117.497 99.9868C71.4142 97.8355 92.5361 73.0612 67.2492 73.0612C41.9623 73.0612 63.0842 97.8355 17.001 99.9868L15.5885 99.9868C15.5115 99.9956 15.4322 100 15.353 100L3.27833 100C2.06382 100 1.07813 99.0135 1.07813 97.798L1.07813 84.5863C1.07813 83.3686 2.06382 82.3843 3.27833 82.3843L18.6709 82.3843C44.3473 80.8253 48.0634 71.9095 51.7202 64.7752C53.2097 61.8708 54.6882 59.2615 57.6365 57.566C59.8279 56.3042 62.829 55.5468 67.2492 55.5468C68.7299 55.5468 70.0523 55.6326 71.2382 55.7934Z" fill="url(#paint0_linear_217_54)"/>
<path d="M71.2383 55.7933C71.2867 55.8 71.3351 55.8066 71.3835 55.8132L71.3241 55.877L71.2383 55.7933Z" fill="url(#paint1_linear_217_54)"/>
<path fill-rule="evenodd" clip-rule="evenodd" d="M71.2383 55.7933C71.2867 55.8 71.3351 55.8066 71.3835 55.8132L71.3241 55.877L71.2383 55.7933Z" fill="#D8D8D8"/>
<path fill-rule="evenodd" clip-rule="evenodd" d="M2.20021 47.1595L42.6069 47.1595C39.0888 50.7795 37.0932 54.699 35.6829 57.4713C34.2175 60.3515 33.8501 60.9086 33.0646 61.448C31.9205 62.2319 28.1934 64.1014 18.1143 64.7686L3.27831 64.7686C3.10669 64.7686 2.93727 64.7708 2.76786 64.7752L2.20021 64.7752C0.985695 64.7752 4.32802e-06 63.7887 4.27489e-06 62.5732L3.69738e-06 49.3615C3.64416e-06 48.1438 0.985694 47.1595 2.20021 47.1595Z" fill="url(#paint2_linear_217_54)"/>
<path fill-rule="evenodd" clip-rule="evenodd" d="M98.8156 57.4691C97.4053 54.699 95.4097 50.7795 91.8916 47.1595L131.72 47.1595C132.934 47.1595 133.92 48.1437 133.92 49.3614L133.92 62.5732C133.92 63.7314 133.024 64.6805 131.889 64.7686L116.384 64.7686C106.307 64.1014 102.58 62.2319 101.436 61.448C100.648 60.9085 100.281 60.3514 98.8156 57.4691Z" fill="url(#paint3_linear_217_54)"/>
<path fill-rule="evenodd" clip-rule="evenodd" d="M71.2383 55.7933C71.2867 55.8 71.3351 55.8066 71.3835 55.8132L71.3241 55.877L71.2383 55.7933Z" fill="#D8D8D8"/>
<path fill-rule="evenodd" clip-rule="evenodd" d="M71.2383 55.7933C71.2867 55.8 71.3351 55.8066 71.3835 55.8132L71.3241 55.877L71.2383 55.7933Z" fill="#D8D8D8"/>
<path fill-rule="evenodd" clip-rule="evenodd" d="M74.9718 2.20195L74.9718 34.0159L107.898 1.06354C108.758 0.204774 110.151 0.204774 111.009 1.06354L120.344 10.4065C121.205 11.2652 121.205 12.6613 120.344 13.5201L89.1829 44.7065C89.1829 44.7065 89.1785 44.7021 89.1763 44.6999C85.1874 41.529 80.4987 39.4922 74.9718 38.5476C73.6715 38.3252 72.3228 38.1622 70.9278 38.0631C69.7375 37.9751 68.512 37.931 67.2491 37.931C65.8124 37.931 64.4219 37.9861 63.0775 38.1006C61.0753 38.2679 59.1744 38.5608 57.3702 38.9814C52.7674 40.0537 48.7806 41.9496 45.3219 44.6999C45.2207 44.7791 45.1217 44.8606 45.0227 44.9421L30.926 30.8341C30.0657 29.9753 30.0657 28.5793 30.926 27.7205L40.2614 18.3776C41.1195 17.5188 42.5122 17.5188 43.3725 18.3776L57.3702 32.3865L57.3702 2.20195C57.3702 0.98647 58.3559 -9.88123e-06 59.5704 -9.93431e-06L72.7716 -1.05114e-05C73.9861 -1.05644e-05 74.9718 0.986469 74.9718 2.20195Z" fill="url(#paint4_linear_217_54)"/>
</g>
<defs>
<linearGradient id="paint0_linear_217_54" x1="99.3517" y1="77.7734" x2="99.3517" y2="108" gradientUnits="userSpaceOnUse">
<stop stop-color="#1A1A1A"/>
<stop offset="1" stop-color="#767676"/>
</linearGradient>
<linearGradient id="paint1_linear_217_54" x1="71.3448" y1="55.8352" x2="71.3448" y2="55.8921" gradientUnits="userSpaceOnUse">
<stop stop-color="#1A1A1A"/>
<stop offset="1" stop-color="#767676"/>
</linearGradient>
<linearGradient id="paint2_linear_217_54" x1="31.2655" y1="55.9674" x2="31.2655" y2="72.5001" gradientUnits="userSpaceOnUse">
<stop stop-color="#1A1A1A"/>
<stop offset="1" stop-color="#767676"/>
</linearGradient>
<linearGradient id="paint3_linear_217_54" x1="122.732" y1="55.964" x2="122.732" y2="74" gradientUnits="userSpaceOnUse">
<stop stop-color="#1A1A1A"/>
<stop offset="1" stop-color="#767676"/>
</linearGradient>
<linearGradient id="paint4_linear_217_54" x1="96.8441" y1="22.471" x2="126.537" y2="22.471" gradientUnits="userSpaceOnUse">
<stop stop-color="#1A1A1A"/>
<stop offset="1" stop-color="#767676"/>
</linearGradient>
<clipPath id="clip0_217_54">
<rect width="100" height="135" fill="white" transform="translate(4.37114e-06 100) rotate(-90)"/>
</clipPath>
</defs>
</svg>
