<svg preserveAspectRatio="none" width="100%" height="100%" overflow="visible" style="display: block;" viewBox="0 0 734 221" fill="none" xmlns="http://www.w3.org/2000/svg">
<path id="Vector" fill-rule="evenodd" clip-rule="evenodd" d="M242.351 46.7603C230.333 41.4775 222.521 38.4807 216.188 36.8062C206.081 34.1342 194.488 34.3922 183.395 34.6392C180.223 34.7098 177.091 34.7795 174.047 34.7795C126.12 34.7795 82.2577 19.5442 69.0682 12.4809C57.0502 7.1981 49.2385 4.20128 42.9045 2.52669C36.5562 0.8484 31.6987 0.5 25.5996 0.5H0.5V220.5H25.5996C31.6987 220.5 36.5562 220.152 42.9045 218.473C49.2385 216.799 57.0502 213.802 69.0682 208.519C82.2577 201.456 126.12 186.221 174.047 186.221C177.091 186.221 180.223 186.29 183.395 186.361C194.488 186.608 206.081 186.866 216.188 184.194C222.521 182.519 230.333 179.523 242.351 174.24C260.07 167.534 288.331 168.108 311.309 168.575C316.749 168.686 321.892 168.79 326.53 168.791C328.478 168.791 330.336 168.804 332.128 168.817C342.927 168.893 351.32 168.953 362.467 166.006C368.801 164.331 376.613 161.335 388.631 156.052C407.049 149.081 434.806 149.438 457.578 149.731C461.9 149.786 466.041 149.839 469.906 149.84C472.95 149.84 476.081 149.91 479.253 149.98C490.346 150.227 501.939 150.485 512.046 147.813C518.38 146.139 526.192 143.142 538.21 137.859C556.563 130.912 581.144 131.243 602.881 131.535C607.096 131.592 611.204 131.647 615.139 131.647H639.974C641.012 131.647 641.989 131.655 642.925 131.662C647.447 131.698 650.985 131.726 655.539 130.839C663.036 129.379 669.522 126.615 676.005 123.852C682.898 120.914 689.787 117.977 697.886 116.611C707.737 114.95 711.585 114.16 715.465 113.786C719.379 113.409 723.324 113.455 733.5 113.455V107.545C723.324 107.545 719.379 107.591 715.465 107.214C711.585 106.84 707.737 106.05 697.886 104.389C689.787 103.023 682.898 100.086 676.005 97.1485C669.522 94.3855 663.036 91.6212 655.539 90.1611C650.985 89.2742 647.447 89.302 642.925 89.3376C641.989 89.345 641.012 89.3527 639.974 89.3527H615.139C611.204 89.3531 607.096 89.4084 602.881 89.465C581.144 89.7571 556.563 90.0875 538.21 83.1409C526.192 77.8581 518.38 74.8614 512.046 73.1868C501.939 70.5149 490.346 70.7728 479.253 71.0198C476.081 71.0904 472.95 71.1601 469.906 71.1601C466.041 71.1605 461.9 71.2138 457.578 71.2694C434.806 71.5622 407.049 71.9191 388.631 64.9483C376.613 59.6655 368.801 56.6687 362.467 54.9941C351.32 52.0472 342.927 52.1067 332.128 52.1834C330.336 52.1961 328.478 52.2093 326.53 52.2093C321.892 52.2098 316.749 52.3144 311.309 52.425C288.331 52.892 260.07 53.4664 242.351 46.7603Z" fill="url(#paint0_radial_0_15)" stroke="url(#paint1_radial_0_15)"/>
<defs>
<radialGradient id="paint0_radial_0_15" cx="0" cy="0" r="1" gradientUnits="userSpaceOnUse" gradientTransform="translate(336 -32.5098) rotate(90) scale(291.5 1554.25)">
<stop stop-color="#FFBB32" stop-opacity="0"/>
<stop offset="1" stop-color="#FF8C00"/>
</radialGradient>
<radialGradient id="paint1_radial_0_15" cx="0" cy="0" r="1" gradientUnits="userSpaceOnUse" gradientTransform="translate(321.187 400.9) scale(2137.79 23.4101)">
<stop stop-color="#FF8C00" stop-opacity="0"/>
<stop offset="1" stop-color="#FF8C00"/>
</radialGradient>
</defs>
</svg>
