<svg preserveAspectRatio="none" width="100%" height="100%" overflow="visible" style="display: block;" viewBox="0 0 79.9995 73.0958" fill="none" xmlns="http://www.w3.org/2000/svg">
<g id="Google Ads">
<path id="Element" d="M27.2234 9.20385C27.9966 7.17409 29.0598 5.30543 30.6385 3.79116C36.9533 -2.36255 47.3921 -0.816069 51.6771 6.91634C54.899 12.7801 58.3141 18.515 61.6326 24.3143C67.1742 33.9476 72.7802 43.5809 78.2573 53.2464C82.8645 61.3332 77.8707 71.5464 68.7206 72.9318C63.1146 73.7695 57.863 71.192 54.9634 66.166C50.0984 57.6925 45.2012 49.2191 40.3362 40.7779C40.2396 40.5846 40.1107 40.4235 39.9818 40.2624C39.4663 39.8435 39.2408 39.2314 38.9186 38.6837C36.76 34.8819 34.5369 31.1124 32.3783 27.3428C30.9929 24.8942 29.5431 22.4778 28.1577 20.0292C26.9012 17.8384 26.3213 15.4542 26.3857 12.9412C26.4823 11.6524 26.6434 10.3637 27.2234 9.20385Z" fill="var(--fill-0, #4285F4)"/>
<path id="Element_2" d="M27.2234 9.20361C26.9334 10.3635 26.6757 11.5233 26.6112 12.7476C26.5146 15.454 27.1912 17.967 28.5443 20.319C32.0884 26.4082 35.6324 32.5297 39.1442 38.6512C39.4664 39.1989 39.7241 39.7466 40.0463 40.2621C38.1132 43.6129 36.1801 46.9313 34.2148 50.2821C31.5084 54.9537 28.8021 59.6576 26.0635 64.3293C25.9347 64.3293 25.9024 64.2648 25.8702 64.1682C25.838 63.9104 25.9347 63.6849 25.9991 63.4272C27.32 58.5944 26.2246 54.3094 22.9061 50.6365C20.8764 48.4134 18.2989 47.1569 15.3348 46.738C11.4686 46.1903 8.05346 47.1891 4.99271 49.6055C4.445 50.0243 4.0906 50.6365 3.44623 50.9586C3.31736 50.9586 3.25292 50.8942 3.2207 50.7975C4.76719 48.1234 6.28145 45.4493 7.82793 42.7752C14.2072 31.692 20.5864 20.6089 26.9979 9.55802C27.0623 9.42914 27.159 9.33249 27.2234 9.20361Z" fill="var(--fill-0, #FBBC05)"/>
<path id="Element_3" d="M3.35 50.8946C3.96215 50.3469 4.54208 49.767 5.18645 49.2515C13.0155 43.0655 24.7752 47.5439 26.4828 57.3383C26.9016 59.6902 26.6761 61.9455 25.9673 64.2008C25.9351 64.3941 25.9029 64.5552 25.8384 64.7485C25.5485 65.264 25.2907 65.8117 24.9685 66.3272C22.1011 71.0633 17.8805 73.4153 12.3389 73.0609C5.99191 72.6098 0.998056 67.8415 0.12816 61.5267C-0.290679 58.4659 0.32147 55.5985 1.90017 52.9566C2.22235 52.3766 2.60898 51.8612 2.96338 51.2812C3.12447 51.1523 3.06003 50.8946 3.35 50.8946Z" fill="var(--fill-0, #34A853)"/>
<path id="Element_4" d="M3.34964 50.8945C3.22077 51.0234 3.22077 51.2489 2.99524 51.2811C2.96302 51.0556 3.0919 50.9267 3.22077 50.7656L3.34964 50.8945Z" fill="var(--fill-0, #FBBC05)"/>
</g>
</svg>
