<svg preserveAspectRatio="none" width="100%" height="100%" overflow="visible" style="display: block;" viewBox="0 0 15.3078 16" fill="none" xmlns="http://www.w3.org/2000/svg">
<path id="HubSpot" d="M11.7537 5.26815V3.36282C12.0059 3.24514 12.2195 3.05838 12.3695 2.82426C12.5195 2.59014 12.5998 2.3183 12.6011 2.04038V1.99662C12.6011 1.18631 11.9431 0.529407 11.1315 0.529407H11.0877C10.6979 0.529407 10.3241 0.683988 10.0485 0.959145C9.77286 1.2343 9.61803 1.60749 9.61803 1.99662V2.04038C9.61931 2.3183 9.69964 2.59014 9.84965 2.82426C9.99966 3.05838 10.2132 3.24514 10.4654 3.36282V5.26815C9.74056 5.37895 9.05792 5.67899 8.48659 6.13789L3.25254 2.06793C3.28988 1.93342 3.30936 1.79512 3.31152 1.65629C3.31217 1.3293 3.21566 1.00947 3.0342 0.737249C2.85275 0.465027 2.59451 0.252647 2.29215 0.126971C1.98978 0.00129537 1.65687 -0.0320291 1.33553 0.0312127C1.01419 0.0944545 0.71885 0.251421 0.486877 0.482259C0.254904 0.713096 0.0967144 1.00743 0.0323186 1.32804C-0.0320771 1.64864 0.000216629 1.98111 0.125109 2.2834C0.250002 2.58568 0.461883 2.84419 0.733957 3.02623C1.00603 3.20827 1.32607 3.30567 1.6536 3.3061C1.94013 3.30475 2.22131 3.22838 2.46903 3.08461L7.623 7.08866C7.15999 7.78698 6.91845 8.60835 6.92984 9.44571C6.94123 10.2831 7.20502 11.0976 7.68685 11.7831L6.11928 13.3486C5.99257 13.3082 5.86055 13.2867 5.72753 13.2849C5.45868 13.2851 5.19593 13.3649 4.97248 13.5141C4.74903 13.6634 4.57491 13.8754 4.47213 14.1234C4.36935 14.3714 4.34251 14.6443 4.39501 14.9076C4.44751 15.1708 4.577 15.4126 4.7671 15.6024C4.95721 15.7922 5.19939 15.9214 5.46306 15.9739C5.72673 16.0263 6.00005 15.9995 6.24848 15.8969C6.4969 15.7943 6.70928 15.6204 6.85878 15.3973C7.00827 15.1743 7.08818 14.9119 7.08839 14.6435C7.08664 14.5107 7.06513 14.3789 7.02454 14.2524L8.57533 12.7036C9.08103 13.0923 9.66914 13.3603 10.2946 13.487C10.9201 13.6137 11.5663 13.5958 12.1837 13.4347C12.8012 13.2736 13.3735 12.9735 13.8569 12.5574C14.3402 12.1413 14.7217 11.6203 14.9722 11.0343C15.2228 10.4483 15.3356 9.81277 15.3021 9.17649C15.2686 8.54021 15.0896 7.92002 14.779 7.36345C14.4683 6.80687 14.0342 6.32867 13.5098 5.96549C12.9854 5.6023 12.3847 5.36376 11.7537 5.26815M11.1109 11.5346C10.8243 11.5425 10.539 11.4929 10.2719 11.3889C10.0049 11.2848 9.76136 11.1283 9.55585 10.9287C9.35035 10.7291 9.187 10.4904 9.07546 10.2268C8.96392 9.96306 8.90645 9.67972 8.90645 9.39348C8.90645 9.10723 8.96392 8.8239 9.07546 8.5602C9.187 8.29651 9.35035 8.05781 9.55585 7.85821C9.76136 7.65861 10.0049 7.50216 10.2719 7.39809C10.539 7.29403 10.8243 7.24447 11.1109 7.25235C11.6664 7.27177 12.1927 7.50565 12.5788 7.90475C12.965 8.30384 13.181 8.83698 13.1813 9.39189C13.1816 9.94681 12.9661 10.4802 12.5803 10.8796C12.1946 11.2791 11.6685 11.5135 11.1131 11.5335" fill="var(--fill-0, #FF5C35)"/>
</svg>
