<svg preserveAspectRatio="none" width="100%" height="100%" overflow="visible" style="display: block;" viewBox="0 0 55.5 15.9495" fill="none" xmlns="http://www.w3.org/2000/svg">
<g id="Group 1">
<g id="Vector">
<path d="M5.01965 7.83381L5.01015 7.84324L5.0174 7.84976C4.98365 8.08073 4.92239 8.26386 4.83963 8.41389C4.64836 8.76276 4.34207 8.93139 3.99977 9.10099C3.18967 9.50277 2.17728 9.91083 2.00026 12.7303V14.5937C2.00026 14.7271 1.8885 14.8353 1.75023 14.8353H0.250033C0.112015 14.8353 0 14.7271 0 14.5937V13.2782C0 13.2693 0.000500065 13.2608 0.0015002 13.2521V12.9134C0.245782 7.85314 3.0589 10.1725 3.0589 7.3958C3.0589 4.61912 0.245782 6.93845 0.0015002 1.8782V1.7231C0.000500065 1.71464 0 1.70594 0 1.69725L5.90692e-08 0.241597C5.90692e-08 0.108236 0.112015 0 0.250033 0H1.75023C1.8885 0 2.00026 0.108236 2.00026 0.241597V2.06157C2.17728 4.88101 3.18967 5.28907 3.99977 5.69061C4.32956 5.85417 4.62585 6.01652 4.81838 6.34026C4.96165 6.58089 5.04766 6.91043 5.04766 7.3958C5.04766 7.55839 5.03791 7.70359 5.01965 7.83381Z" fill="url(#paint0_linear_0_26)"/>
<path d="M5.01965 7.83381C5.0189 7.83913 5.01815 7.84445 5.0174 7.84976L5.01015 7.84324L5.01965 7.83381Z" fill="url(#paint1_linear_0_26)"/>
<path fill-rule="evenodd" clip-rule="evenodd" d="M5.01965 7.83381C5.0189 7.83913 5.01815 7.84445 5.0174 7.84976L5.01015 7.84324L5.01965 7.83381Z" fill="url(#paint2_linear_0_26)"/>
<path fill-rule="evenodd" clip-rule="evenodd" d="M6.00003 0.252979V4.68991C5.58898 4.3036 5.14392 4.08447 4.82913 3.9296C4.50209 3.7687 4.43883 3.72835 4.37757 3.6421C4.28856 3.51647 4.07628 3.10721 4.00052 2.00045V0.371362C4.00052 0.352517 4.00027 0.333914 3.99977 0.315311V0.252979C3.99977 0.119618 4.11179 0.011382 4.2498 0.011382H5.75C5.88827 0.011382 6.00003 0.119618 6.00003 0.252979Z" fill="url(#paint3_linear_0_26)"/>
<path fill-rule="evenodd" clip-rule="evenodd" d="M4.82938 10.862C5.14392 10.7071 5.58898 10.488 6.00003 10.1017L6.00003 14.6051C6.00003 14.7385 5.88827 14.8467 5.75 14.8467H4.2498C4.11829 14.8467 4.01052 14.7484 4.00052 14.6237L4.00052 12.7911C4.07628 11.6846 4.28856 11.2754 4.37757 11.1497C4.43883 11.0632 4.50209 11.0229 4.82938 10.862Z" fill="url(#paint4_linear_0_26)"/>
<path fill-rule="evenodd" clip-rule="evenodd" d="M5.01965 7.83381C5.0189 7.83913 5.01815 7.84445 5.0174 7.84976L5.01015 7.84324L5.01965 7.83381Z" fill="url(#paint5_linear_0_26)"/>
<path fill-rule="evenodd" clip-rule="evenodd" d="M5.01965 7.83381C5.0189 7.83913 5.01815 7.84445 5.0174 7.84976L5.01015 7.84324L5.01965 7.83381Z" fill="url(#paint6_linear_0_26)"/>
<path fill-rule="evenodd" clip-rule="evenodd" d="M11.1049 8.24381H7.49248L11.2342 11.8593C11.3317 11.9538 11.3317 12.1067 11.2342 12.2009L10.1733 13.226C10.0758 13.3205 9.91729 13.3205 9.81978 13.226L6.27857 9.80428C6.27857 9.80428 6.27907 9.8038 6.27932 9.80356C6.63937 9.36554 6.87065 8.8507 6.97791 8.24381C7.00316 8.10102 7.02166 7.95292 7.03292 7.79975C7.04292 7.66905 7.04792 7.53448 7.04792 7.3958C7.04792 7.23804 7.04167 7.08535 7.02867 6.93773C7.00966 6.71788 6.97641 6.50914 6.92865 6.31103C6.80689 5.80561 6.59161 5.36783 6.27932 4.98804C6.27032 4.97693 6.26107 4.96606 6.25181 4.95519L7.85377 3.40727C7.95129 3.31281 8.10981 3.31281 8.20732 3.40727L9.26821 4.43237C9.36572 4.52659 9.36572 4.67952 9.26821 4.77399L7.6775 6.31103H11.1049C11.243 6.31103 11.355 6.41926 11.355 6.55263V8.00221C11.355 8.13557 11.243 8.24381 11.1049 8.24381Z" fill="url(#paint7_linear_0_26)"/>
</g>
<g id="Klyre">
<path d="M19.0487 12.487V1.32087H20.8785V6.88766L26.2207 1.32087H28.4752L24.1622 5.81337L28.5896 12.487H26.4331L22.9206 7.09927L20.8785 8.97114V12.487H19.0487Z" fill="url(#paint8_linear_0_26)"/>
<path d="M29.8762 12.487V0.718613H31.5753V12.487H29.8762Z" fill="url(#paint9_linear_0_26)"/>
<path d="M34.7002 15.4495C34.3735 15.4495 34.1012 15.4223 33.8834 15.3681C33.6656 15.3247 33.5294 15.2975 33.475 15.2867V14.0659H34.2918C34.5314 14.0659 34.771 14.0116 35.0106 13.9031C35.2611 13.7946 35.4844 13.621 35.6805 13.3823C35.8765 13.1435 36.0399 12.8451 36.1706 12.487L32.8215 3.92522H34.6022L36.2686 8.18984C36.3448 8.38516 36.4265 8.62932 36.5137 8.92231C36.6117 9.2153 36.7042 9.51371 36.7914 9.81755C36.8894 10.1214 36.9711 10.3927 37.0364 10.6314H37.1181C37.1726 10.4686 37.227 10.2842 37.2815 10.078C37.3468 9.86096 37.4122 9.63851 37.4775 9.41063C37.5429 9.18274 37.6082 8.96572 37.6736 8.75954C37.7389 8.54251 37.7934 8.35803 37.8369 8.20611L39.2256 3.92522H40.9573L38.0493 12.1615C37.886 12.6172 37.7063 13.0459 37.5102 13.4474C37.3142 13.8489 37.0854 14.1961 36.8241 14.4891C36.5736 14.7929 36.274 15.0263 35.9255 15.189C35.577 15.3626 35.1686 15.4495 34.7002 15.4495Z" fill="url(#paint10_linear_0_26)"/>
<path d="M42.1928 12.487V3.92522H43.5978L43.7448 5.30878H43.8428C43.9409 5.03749 44.0661 4.78248 44.2186 4.54375C44.382 4.30502 44.5889 4.10969 44.8394 3.95777C45.1008 3.80585 45.4166 3.72989 45.7869 3.72989C45.9612 3.72989 46.1137 3.74617 46.2444 3.77872C46.386 3.81128 46.4949 3.83841 46.5711 3.86011V5.45527H45.9993C45.6508 5.45527 45.3404 5.50953 45.0681 5.61804C44.8067 5.72656 44.5835 5.88933 44.3983 6.10636C44.224 6.31254 44.0933 6.56754 44.0062 6.87139C43.93 7.17523 43.8919 7.51705 43.8919 7.89685V12.487H42.1928Z" fill="url(#paint11_linear_0_26)"/>
<path d="M51.2425 12.6823C50.3603 12.6823 49.6197 12.525 49.0207 12.2103C48.4325 11.8848 47.986 11.391 47.681 10.7291C47.3761 10.0671 47.2236 9.22615 47.2236 8.20611C47.2236 7.17523 47.3761 6.33424 47.681 5.68315C47.986 5.02121 48.438 4.5329 49.037 4.21821C49.636 3.89266 50.3821 3.72989 51.2752 3.72989C52.092 3.72989 52.7727 3.88724 53.3173 4.20193C53.8728 4.50577 54.2921 4.97238 54.5752 5.60177C54.8584 6.23115 55 7.02331 55 7.97823V8.62932H48.9716C48.9934 9.237 49.086 9.74702 49.2494 10.1594C49.4127 10.5609 49.6578 10.8593 49.9845 11.0546C50.3222 11.2391 50.7469 11.3313 51.2588 11.3313C51.5747 11.3313 51.8579 11.2934 52.1084 11.2174C52.3589 11.1306 52.5712 11.0112 52.7455 10.8593C52.9198 10.6965 53.0559 10.5066 53.1539 10.2896C53.2519 10.0617 53.301 9.8067 53.301 9.52456H54.9673C54.9673 10.0346 54.8802 10.4849 54.7059 10.8756C54.5317 11.2662 54.2757 11.5972 53.9381 11.8685C53.6114 12.1289 53.2193 12.3297 52.7618 12.4707C52.3044 12.6118 51.798 12.6823 51.2425 12.6823ZM49.0043 7.39226H53.2193C53.2193 6.96905 53.1703 6.61638 53.0722 6.33424C52.9851 6.04125 52.8544 5.80252 52.6802 5.61804C52.5059 5.43357 52.299 5.30335 52.0593 5.22739C51.8197 5.14058 51.5474 5.09717 51.2425 5.09717C50.7851 5.09717 50.393 5.17856 50.0662 5.34133C49.7504 5.5041 49.5053 5.75911 49.3311 6.10636C49.1568 6.44275 49.0479 6.87139 49.0043 7.39226Z" fill="url(#paint12_linear_0_26)"/>
<path d="M19.0487 12.487V1.32087H20.8785V6.88766L26.2207 1.32087H28.4752L24.1622 5.81337L28.5896 12.487H26.4331L22.9206 7.09927L20.8785 8.97114V12.487H19.0487Z" stroke="var(--stroke-0, #1A1A1A)" stroke-opacity="0.1"/>
<path d="M29.8762 12.487V0.718613H31.5753V12.487H29.8762Z" stroke="var(--stroke-0, #1A1A1A)" stroke-opacity="0.1"/>
<path d="M34.7002 15.4495C34.3735 15.4495 34.1012 15.4223 33.8834 15.3681C33.6656 15.3247 33.5294 15.2975 33.475 15.2867V14.0659H34.2918C34.5314 14.0659 34.771 14.0116 35.0106 13.9031C35.2611 13.7946 35.4844 13.621 35.6805 13.3823C35.8765 13.1435 36.0399 12.8451 36.1706 12.487L32.8215 3.92522H34.6022L36.2686 8.18984C36.3448 8.38516 36.4265 8.62932 36.5137 8.92231C36.6117 9.2153 36.7042 9.51371 36.7914 9.81755C36.8894 10.1214 36.9711 10.3927 37.0364 10.6314H37.1181C37.1726 10.4686 37.227 10.2842 37.2815 10.078C37.3468 9.86096 37.4122 9.63851 37.4775 9.41063C37.5429 9.18274 37.6082 8.96572 37.6736 8.75954C37.7389 8.54251 37.7934 8.35803 37.8369 8.20611L39.2256 3.92522H40.9573L38.0493 12.1615C37.886 12.6172 37.7063 13.0459 37.5102 13.4474C37.3142 13.8489 37.0854 14.1961 36.8241 14.4891C36.5736 14.7929 36.274 15.0263 35.9255 15.189C35.577 15.3626 35.1686 15.4495 34.7002 15.4495Z" stroke="var(--stroke-0, #1A1A1A)" stroke-opacity="0.1"/>
<path d="M42.1928 12.487V3.92522H43.5978L43.7448 5.30878H43.8428C43.9409 5.03749 44.0661 4.78248 44.2186 4.54375C44.382 4.30502 44.5889 4.10969 44.8394 3.95777C45.1008 3.80585 45.4166 3.72989 45.7869 3.72989C45.9612 3.72989 46.1137 3.74617 46.2444 3.77872C46.386 3.81128 46.4949 3.83841 46.5711 3.86011V5.45527H45.9993C45.6508 5.45527 45.3404 5.50953 45.0681 5.61804C44.8067 5.72656 44.5835 5.88933 44.3983 6.10636C44.224 6.31254 44.0933 6.56754 44.0062 6.87139C43.93 7.17523 43.8919 7.51705 43.8919 7.89685V12.487H42.1928Z" stroke="var(--stroke-0, #1A1A1A)" stroke-opacity="0.1"/>
<path d="M51.2425 12.6823C50.3603 12.6823 49.6197 12.525 49.0207 12.2103C48.4325 11.8848 47.986 11.391 47.681 10.7291C47.3761 10.0671 47.2236 9.22615 47.2236 8.20611C47.2236 7.17523 47.3761 6.33424 47.681 5.68315C47.986 5.02121 48.438 4.5329 49.037 4.21821C49.636 3.89266 50.3821 3.72989 51.2752 3.72989C52.092 3.72989 52.7727 3.88724 53.3173 4.20193C53.8728 4.50577 54.2921 4.97238 54.5752 5.60177C54.8584 6.23115 55 7.02331 55 7.97823V8.62932H48.9716C48.9934 9.237 49.086 9.74702 49.2494 10.1594C49.4127 10.5609 49.6578 10.8593 49.9845 11.0546C50.3222 11.2391 50.7469 11.3313 51.2588 11.3313C51.5747 11.3313 51.8579 11.2934 52.1084 11.2174C52.3589 11.1306 52.5712 11.0112 52.7455 10.8593C52.9198 10.6965 53.0559 10.5066 53.1539 10.2896C53.2519 10.0617 53.301 9.8067 53.301 9.52456H54.9673C54.9673 10.0346 54.8802 10.4849 54.7059 10.8756C54.5317 11.2662 54.2757 11.5972 53.9381 11.8685C53.6114 12.1289 53.2193 12.3297 52.7618 12.4707C52.3044 12.6118 51.798 12.6823 51.2425 12.6823ZM49.0043 7.39226H53.2193C53.2193 6.96905 53.1703 6.61638 53.0722 6.33424C52.9851 6.04125 52.8544 5.80252 52.6802 5.61804C52.5059 5.43357 52.299 5.30335 52.0593 5.22739C51.8197 5.14058 51.5474 5.09717 51.2425 5.09717C50.7851 5.09717 50.393 5.17856 50.0662 5.34133C49.7504 5.5041 49.5053 5.75911 49.3311 6.10636C49.1568 6.44275 49.0479 6.87139 49.0043 7.39226Z" stroke="var(--stroke-0, #1A1A1A)" stroke-opacity="0.1"/>
</g>
</g>
<defs>
<linearGradient id="paint0_linear_0_26" x1="5.67749" y1="10.8947" x2="5.67749" y2="15.7546" gradientUnits="userSpaceOnUse">
<stop stop-color="#1A1A1A"/>
<stop offset="1" stop-color="#767676"/>
</linearGradient>
<linearGradient id="paint1_linear_0_26" x1="5.67749" y1="10.8947" x2="5.67749" y2="15.7546" gradientUnits="userSpaceOnUse">
<stop stop-color="#1A1A1A"/>
<stop offset="1" stop-color="#767676"/>
</linearGradient>
<linearGradient id="paint2_linear_0_26" x1="5.67749" y1="10.8947" x2="5.67749" y2="15.7546" gradientUnits="userSpaceOnUse">
<stop stop-color="#1A1A1A"/>
<stop offset="1" stop-color="#767676"/>
</linearGradient>
<linearGradient id="paint3_linear_0_26" x1="5.67749" y1="10.8947" x2="5.67749" y2="15.7546" gradientUnits="userSpaceOnUse">
<stop stop-color="#1A1A1A"/>
<stop offset="1" stop-color="#767676"/>
</linearGradient>
<linearGradient id="paint4_linear_0_26" x1="5.67749" y1="10.8947" x2="5.67749" y2="15.7546" gradientUnits="userSpaceOnUse">
<stop stop-color="#1A1A1A"/>
<stop offset="1" stop-color="#767676"/>
</linearGradient>
<linearGradient id="paint5_linear_0_26" x1="5.67749" y1="10.8947" x2="5.67749" y2="15.7546" gradientUnits="userSpaceOnUse">
<stop stop-color="#1A1A1A"/>
<stop offset="1" stop-color="#767676"/>
</linearGradient>
<linearGradient id="paint6_linear_0_26" x1="5.67749" y1="10.8947" x2="5.67749" y2="15.7546" gradientUnits="userSpaceOnUse">
<stop stop-color="#1A1A1A"/>
<stop offset="1" stop-color="#767676"/>
</linearGradient>
<linearGradient id="paint7_linear_0_26" x1="5.67749" y1="10.8947" x2="5.67749" y2="15.7546" gradientUnits="userSpaceOnUse">
<stop stop-color="#1A1A1A"/>
<stop offset="1" stop-color="#767676"/>
</linearGradient>
<linearGradient id="paint8_linear_0_26" x1="37.0244" y1="11.5283" x2="37.0244" y2="16.3503" gradientUnits="userSpaceOnUse">
<stop stop-color="#1A1A1A"/>
<stop offset="1" stop-color="#767676"/>
</linearGradient>
<linearGradient id="paint9_linear_0_26" x1="37.0244" y1="11.5283" x2="37.0244" y2="16.3503" gradientUnits="userSpaceOnUse">
<stop stop-color="#1A1A1A"/>
<stop offset="1" stop-color="#767676"/>
</linearGradient>
<linearGradient id="paint10_linear_0_26" x1="37.0244" y1="11.5283" x2="37.0244" y2="16.3503" gradientUnits="userSpaceOnUse">
<stop stop-color="#1A1A1A"/>
<stop offset="1" stop-color="#767676"/>
</linearGradient>
<linearGradient id="paint11_linear_0_26" x1="37.0244" y1="11.5283" x2="37.0244" y2="16.3503" gradientUnits="userSpaceOnUse">
<stop stop-color="#1A1A1A"/>
<stop offset="1" stop-color="#767676"/>
</linearGradient>
<linearGradient id="paint12_linear_0_26" x1="37.0244" y1="11.5283" x2="37.0244" y2="16.3503" gradientUnits="userSpaceOnUse">
<stop stop-color="#1A1A1A"/>
<stop offset="1" stop-color="#767676"/>
</linearGradient>
</defs>
</svg>
